<svg width="30" height="30" viewBox="0 0 30 30" fill="none" xmlns="http://www.w3.org/2000/svg">
<path fill-rule="evenodd" clip-rule="evenodd" d="M13.75 6.25H16.25C16.9375 6.25 17.5 6.8125 17.5 7.5C17.5 8.1875 16.9375 8.75 16.25 8.75H3.75C3.0625 8.75 2.5 8.1875 2.5 7.5C2.5 6.8125 3.0625 6.25 3.75 6.25H6.25L7.1375 5.3625C7.3625 5.1375 7.6875 5 8.0125 5H11.9875C12.3125 5 12.6375 5.1375 12.8625 5.3625L13.75 6.25ZM3.75 22.5C3.75 23.875 4.875 25 6.25 25H13.75C15.125 25 16.25 23.875 16.25 22.5V10H3.75V22.5ZM20 10H26.25C26.9375 10 27.5 10.5625 27.5 11.25C27.5 11.9375 26.9375 12.5 26.25 12.5H20C19.3125 12.5 18.75 11.9375 18.75 11.25C18.75 10.5625 19.3125 10 20 10ZM20 20H22.5C23.1875 20 23.75 20.5625 23.75 21.25C23.75 21.9375 23.1875 22.5 22.5 22.5H20C19.3125 22.5 18.75 21.9375 18.75 21.25C18.75 20.5625 19.3125 20 20 20ZM25 15H20C19.3125 15 18.75 15.5625 18.75 16.25C18.75 16.9375 19.3125 17.5 20 17.5H25C25.6875 17.5 26.25 16.9375 26.25 16.25C26.25 15.5625 25.6875 15 25 15Z" fill="black"/>
</svg>
